<svg xmlns="http://www.w3.org/2000/svg" viewBox="0 0 54 42.5" x="0px" y="0px"><path d="M52 34H32c-1.1 0-2-.9-2-2s.9-2 2-2h20c1.1 0 2 .9 2 2s-.9 2-2 2zm2-17c0-1.1-.9-2-2-2H17c-1.1 0-2 .9-2 2s.9 2 2 2h35c1.1 0 2-.9 2-2zm0-15c0-1.1-.9-2-2-2H2C.9 0 0 .9 0 2s.9 2 2 2h50c1.1 0 2-.9 2-2z"/><text x="0" y="49" fill="#000000" font-size="5px" font-weight="bold" font-family="'Helvetica Neue', Helvetica, Arial-Unicode, Arial, Sans-serif">Created by Erik Sigblad</text><text x="0" y="54" fill="#000000" font-size="5px" font-weight="bold" font-family="'Helvetica Neue', Helvetica, Arial-Unicode, Arial, Sans-serif">from the Noun Project</text></svg>